# xmcd CD database file
#
# Track frame offsets:
#	150
#	23647
#	45807
#	54225
#	179252
#	244692
#	265137
#	279955
#	293887
#	316865
#
# Disc length: 4441 seconds
#
# Revision: 1
# Processed by: cddbd v1.5.2PL0 Copyright (c) Steve Scherf et al.
# Submitted via: CDex 1.70beta3
#
DISCID=7911570a
DTITLE=Falcom - 浪漫境伝説「ロマンシア」
DYEAR=1991
DGENRE=Game
TTITLE0=序章 ～プロローグ～
TTITLE1=ロマンシアのテーマ
TTITLE2=エルビスよ風になれ
TTITLE3=サウンドムービー 「ロマンシア」 （前編）
TTITLE4=サウンドムービー 「ロマンシア」 （後編）
TTITLE5=炎のロッド -The lod of fire-
TTITLE6=Selina
TTITLE7=交響組曲 「聖剣」
TTITLE8=冨永みーな/Toy Girl
TTITLE9=はるかなるロマンシア
EXTD=YEAR: 1991
EXTT0=
EXTT1=
EXTT2=
EXTT3=
EXTT4=
EXTT5=
EXTT6=
EXTT7=
EXTT8=
EXTT9=
PLAYORDER=
